<svg width="55" height="46" viewBox="0 0 55 46" fill="none" xmlns="http://www.w3.org/2000/svg">
<path d="M44.6506 -4.22761e-07C49.9921 -1.89277e-07 54.3223 4.33014 54.3223 9.67164L54.3223 45.1343C48.9808 45.1343 44.6506 40.8042 44.6506 35.4627L44.6506 -4.22761e-07Z" fill="#1C77FF"/>
<path d="M29.3372 -4.22761e-07C34.6787 -1.89277e-07 39.0088 4.33014 39.0088 9.67164L39.0088 45.1343C33.6673 45.1343 29.3372 40.8042 29.3372 35.4627L29.3372 -4.22761e-07Z" fill="#1C77FF"/>
<path d="M14.8297 -4.22761e-07C20.1712 -1.89277e-07 24.5013 4.33014 24.5013 9.67164L24.5013 45.1343C19.1598 45.1343 14.8297 40.8042 14.8297 35.4627L14.8297 -4.22761e-07Z" fill="#1C77FF"/>
<path d="M0.322254 24.1791C5.66375 24.1791 9.9939 28.5092 9.9939 33.8507L9.9939 45.1343C4.6524 45.1343 0.322253 40.8042 0.322254 35.4627L0.322254 24.1791Z" fill="#1C77FF"/>
</svg>
